# xmcd
#
# Track frame offsets: 
#        150
#        15281
#        29461
#        43444
#        63399
#        81329
#        101463
#        124485
#        145337
#        162629
#        183900
#        205709
#        226561
#
# Disc length: 3275 seconds
#
# Revision: 2
# Processed by: cddbd v1.5.2PL0 Copyright (c) Steve Scherf et al.
# Submitted via: ExactAudioCopyFreeDBPlugin 1.0
#
DISCID=ae0cc90d
DTITLE=JJ Thames - Raw Sugar
DYEAR=2016
DGENRE=Rock
TTITLE0=Oh Lord
TTITLE1=Hattie Pearl
TTITLE2=I'm Leavin'
TTITLE3=Leftovers
TTITLE4=Woman Scorned
TTITLE5=Only Fool was Me
TTITLE6=Bad Man
TTITLE7=Hold Me
TTITLE8=Don't Stop My Shine
TTITLE9=Don't Feel Nothin'
TTITLE10=Plan B
TTITLE11=Raw Sugar
TTITLE12=Want to Fall in Love
EXTD=
EXTT0=
EXTT1=
EXTT2=
EXTT3=
EXTT4=
EXTT5=
EXTT6=
EXTT7=
EXTT8=
EXTT9=
EXTT10=
EXTT11=
EXTT12=
PLAYORDER=
